{"title":"Hes Out There 2018 1080p BluRay x264 DTS [MW]","magnet":"magnet:?xt=urn:btih:e1f40860c176a4feb2f8e95683f6ff4631af0ece&dn=Hes+Out+There+2018+1080p+BluRay+x264+DTS+%5BMW%5D&tr=udp%3A%2F%2Ftracker.leechers-paradise.org%3A6969&tr=udp%3A%2F%2Fzer0day.ch%3A1337&tr=udp%3A%2F%2Fopen.demonii.com%3A1337&tr=udp%3A%2F%2Ftracker.coppersurfer.tk%3A6969&tr=udp%3A%2F%2Fexodus.desync.com%3A6969","uploader":"MFreaky","categoryP":"video","categoryS":"hd___movies","size":"2469680872","seeders":"1","leechers":"1","description":" <a href=\"https://pichub.site/image/E19EI\" rel=\"nofollow\" target=\"_NEW\">https://pichub.site/image/E19EI</a> <a href=\"\nhttps://pichub.site/image/E1HmX\" rel=\"nofollow\" target=\"_NEW\">\nhttps://pichub.site/image/E1HmX</a> <a href=\"\nhttps://pichub.site/image/E1Ts8\" rel=\"nofollow\" target=\"_NEW\">\nhttps://pichub.site/image/E1Ts8</a> <a href=\"\nhttps://pichub.site/image/E1QaJ\" rel=\"nofollow\" target=\"_NEW\">\nhttps://pichub.site/image/E1QaJ</a> <a href=\"\nhttps://pichub.site/image/E1Wz5\" rel=\"nofollow\" target=\"_NEW\">\nhttps://pichub.site/image/E1Wz5</a>\r\n\r\nIMDB <a href=\"\nhttps://www.imdb.com/title/tt4052050/\" rel=\"nofollow\" target=\"_NEW\">\nhttps://www.imdb.com/title/tt4052050/</a>\r\n\r\nVideo\r\nFormat                                   : AVC\r\nFormat/Info                              : Advanced Video Codec\r\nFormat profile                           : High@L4.1\r\nFormat settings                          : CABAC / 4 Ref Frames\r\nFormat settings, CABAC                   : Yes\r\nFormat settings, RefFrames               : 4 frames\r\nCodec ID                                 : V_MPEG4/ISO/AVC\r\nDuration                                 : 1 h 29 min\r\nBit rate                                 : 3 000 kb/s\r\nWidth                                    : 1 920 pixels\r\nHeight                                   : 800 pixels\r\nDisplay aspect ratio                     : 2.40:1\r\nFrame rate mode                          : Constant\r\nFrame rate                               : 23.976 (24000/1001) FPS\r\nColor space                              : YUV\r\nChroma subsampling                       : 4:2:0\r\nBit depth                                : 8 bits\r\nScan type                                : Progressive\r\nBits/(Pixel*Frame)                       : 0.081\r\nStream size                              : 1.83 GiB (79%)\r\nWriting library                          : x264 core 155 r2901 7d0ff22\r\n\r\nAudio\r\nFormat                                   : DTS\r\nFormat/Info                              : Digital Theater Systems\r\nCodec ID                                 : A_DTS\r\nDuration                                 : 1 h 29 min\r\nBit rate mode                            : Constant\r\nBit rate                                 : 756 kb/s\r\nChannel(s)                               : 6 channels\r\nChannel positions                        : Front: L C R, Side: L R, LFE\r\nSampling rate                            : 48.0 kHz\r\nFrame rate                               : 93.750 FPS (512 SPF)\r\nBit depth                                : 16 bits\r\nStream size                              : 484 MiB (21%)\r\nLanguage                                 : English","last_updated":"2018-10-01T12:05:15.107Z","parsed":{"xt":"urn:btih:e1f40860c176a4feb2f8e95683f6ff4631af0ece","dn":"Hes Out There 2018 1080p BluRay x264 DTS [MW]","tr":["udp://exodus.desync.com:6969","udp://open.demonii.com:1337","udp://tracker.coppersurfer.tk:6969","udp://tracker.leechers-paradise.org:6969","udp://zer0day.ch:1337"],"infoHash":"e1f40860c176a4feb2f8e95683f6ff4631af0ece","infoHashBuffer":{"type":"Buffer","data":[225,244,8,96,193,118,164,254,178,248,233,86,131,246,255,70,49,175,14,206]},"name":"Hes Out There 2018 1080p BluRay x264 DTS [MW]","announce":["udp://exodus.desync.com:6969","udp://open.demonii.com:1337","udp://tracker.coppersurfer.tk:6969","udp://tracker.leechers-paradise.org:6969","udp://zer0day.ch:1337"],"urlList":[]}}